<svg height="640" preserveAspectRatio="xMidYMid meet" viewBox="0 0 640 640" width="640" xmlns="http://www.w3.org/2000/svg" xmlns:xlink="http://www.w3.org/1999/xlink"><defs><path id="a" d="m395.46 311.07c0 52.95-23.24 100.36-60.32 132.83-1.01-9.54-6.06-57.26-15.13-143.16-9.08 85.9-14.12 133.62-15.13 143.16-36.9-32.28-60.33-79.88-60.33-132.83 0-59.96 29.89-112.72 75.46-144.64 45.57 31.92 75.45 84.87 75.45 144.64z"/><path id="b" d="m356.72 87.29c0 25.64-11.25 48.89-29.33 64.57-.5-4.64-2.96-27.82-7.38-69.55-4.43 41.73-6.89 64.91-7.38 69.55-17.9-15.68-29.34-38.74-29.34-64.57 0-29.15 14.58-54.79 36.72-70.29 22.14 15.5 36.71 41.14 36.71 70.29z"/><path id="c" d="m245.29 103.16c0 16.78-7.38 31.73-19 42.06-.32-3.03-1.92-18.15-4.8-45.39-2.88 27.24-4.48 42.36-4.8 45.39-11.62-10.15-19-25.28-19-42.06 0-19.01 9.41-35.79 23.8-45.76 14.39 10.15 23.8 26.75 23.8 45.76z"/><path id="d" d="m442.32 103.16c0 16.78-7.38 31.73-19 42.06-.32-3.03-1.92-18.15-4.8-45.39-2.87 27.24-4.47 42.36-4.79 45.39-11.63-10.15-19.01-25.28-19.01-42.06-.18-19.01 9.41-35.79 23.8-45.76 14.39 10.15 23.8 26.75 23.8 45.76z"/><path id="e" d="m282.56 60.35c0 14.58-6.46 27.86-16.61 36.72-.28-2.65-1.69-15.87-4.24-39.67-2.55 23.8-3.96 37.02-4.24 39.67-10.15-8.86-16.61-22.14-16.61-36.72 0-16.6 8.12-31.17 20.85-40.03 12.54 8.86 20.85 23.43 20.85 40.03z"/><path id="f" d="m399.34 60.35c0 14.58-6.46 27.86-16.61 36.72-.28-2.65-1.69-15.87-4.24-39.67-2.55 23.8-3.96 37.02-4.24 39.67-10.15-8.86-16.61-22.14-16.61-36.72 0-16.6 8.12-31.17 20.85-40.03 12.54 8.86 20.85 23.43 20.85 40.03z"/><path id="g" d="m216.14 276.39c13.28 31.55 11.44 65.68-2.4 94.27-3.01-5.43-18.08-32.61-45.2-81.54 16.27 53.46 25.31 83.17 27.12 89.11-30.25-9.97-56.08-32.47-69.36-64.02-14.95-35.42-10.52-74.53 8.48-104.97 35.24 7.56 66.42 31.54 81.36 67.15z"/><path id="h" d="m423.87 276.39c-13.28 31.55-11.43 65.68 2.4 94.27 3.02-5.43 18.08-32.61 45.2-81.54-16.27 53.46-25.31 83.17-27.12 89.11 30.26-9.97 56.09-32.47 69.37-64.02 15.13-35.42 10.7-74.53-8.49-104.97-35.23 7.56-66.41 31.54-81.36 67.15z"/><path id="i" d="m183.49 109.43c6.27 14.76 5.35 30.62-1.11 44.09-1.4-2.53-8.41-15.2-21.03-38 7.53 25.01 11.71 38.91 12.54 41.69-14.02-4.61-26.19-15.13-32.47-29.89-7.01-16.78-4.98-35.05 4.06-49.25 16.42 3.5 31 14.75 38.01 31.36z"/><path id="j" d="m456.71 109.43c-6.27 14.76-5.35 30.62 1.11 44.09 1.4-2.53 8.41-15.2 21.03-38-7.53 25.01-11.71 38.91-12.54 41.69 14.02-4.61 26.19-15.13 32.47-29.89 6.82-16.78 4.79-35.05-4.06-49.25-16.42 3.5-31 14.75-38.01 31.36z"/><path id="k" d="m249.16 186.73c9.04 21.58 7.75 44.83-1.66 64.38-2.05-3.71-12.32-22.28-30.81-55.71 11.07 36.53 17.22 56.82 18.45 60.88-20.66-6.83-38.37-22.14-47.41-43.72-10.33-24.17-7.2-50.92 5.72-71.77 23.98 5.17 45.38 21.59 55.71 45.94z"/><path id="l" d="m390.85 186.73c-9.04 21.58-7.75 44.83 1.66 64.38 2.05-3.71 12.32-22.28 30.81-55.71-11.07 36.53-17.22 56.82-18.45 60.88 20.66-6.83 38.37-22.14 47.41-43.72 10.34-24.17 7.38-50.92-5.71-71.77-23.99 5.17-45.39 21.59-55.72 45.94z"/><path id="m" d="m258.94 402.03c13.28 13.28 19.37 31.17 18.27 48.52-2.66-2.16-15.94-12.92-39.85-32.29 19.37 23.91 30.13 37.19 32.28 39.85-17.34 1.11-35.23-4.98-48.52-18.26-15.31-14.95-21.03-35.61-17.52-55.17 19.55-3.5 40.21 2.4 55.34 17.35z"/><path id="n" d="m419.26 440.03c-13.28 13.28-31.18 19.37-48.52 18.26 2.15-2.65 12.92-15.94 32.29-39.85-23.91 19.38-37.2 30.14-39.85 32.29-1.11-17.34 4.98-35.24 18.26-48.52 14.76-15.13 35.61-21.03 55.16-17.53 3.51 19.56-2.4 40.22-17.34 55.35z"/><path id="o" d="m81.83 264.4c19.38 19.37 28.23 45.2 26.57 70.47-3.86-3.12-23.17-18.74-57.93-46.86 28.12 34.76 43.74 54.07 46.86 57.93-25.27 1.66-51.1-7.19-70.47-26.57-22.14-21.76-30.44-52.02-25.46-80.25 28.22-4.98 58.48 3.51 80.43 25.28z"/><path id="p" d="m613.34 319.56c-19.37 19.37-45.2 28.23-70.47 26.57 3.12-3.87 18.74-23.18 46.86-57.93-34.76 28.11-54.07 43.73-57.93 46.86-1.66-25.28 7.19-51.11 26.57-70.48 21.76-22.14 52.02-30.44 80.25-25.46 4.98 28.23-3.51 58.49-25.28 80.44z"/><path id="q" d="m159.5 157.39c12.36 12.37 18.08 28.97 16.98 45.39-2.48-2.01-14.84-12.03-37.09-30.07 18.05 22.25 28.07 34.61 30.08 37.08-16.24 1.11-32.84-4.61-45.39-16.97-14.02-14.02-19.37-33.4-16.23-51.66 18.26-3.14 37.63 2.21 51.65 16.23z"/><path id="r" d="m515.93 192.82c-12.36 12.36-28.96 18.08-45.38 16.97 2-2.47 12.03-14.83 30.07-37.08-22.25 18.04-34.61 28.06-37.08 30.07-1.11-16.24 4.61-32.84 16.97-45.39 14.02-14.02 33.39-19.37 51.66-16.23 3.13 18.26-2.22 37.64-16.24 51.66z"/><path id="s" d="m101.02 195.4c12.36 12.36 18.08 28.96 16.97 45.2-2.47-1.99-14.83-11.96-37.08-29.89 17.93 22.25 27.9 34.61 29.89 37.08-16.24 1.11-32.84-4.61-45.2-16.97-13.84-14.2-19.37-33.58-16.05-51.66 18.08-3.13 37.45 2.22 51.47 16.24z"/><path id="t" d="m574.23 230.64c-12.36 12.36-28.96 18.08-45.2 16.97 1.99-2.47 11.96-14.83 29.89-37.08-22.25 17.93-34.61 27.89-37.08 29.88-1.11-16.23 4.61-32.83 16.97-45.2 14.2-13.83 33.58-19.37 51.66-16.05 3.13 18.08-2.22 37.46-16.24 51.48z"/><path id="u" d="m344.73 149.65c-1.11 18.63 5.9 35.79 18.08 47.96.56-3.33 3.39-20 8.48-49.99 1.22 30.33 1.9 47.18 2.03 50.55 13.66-10.52 22.88-26.57 24.17-45.2 1.48-20.85-7.75-40.22-23.06-52.4-16.79 10.15-28.41 28.04-29.7 49.08z"/><path id="v" d="m295.29 149.65c1.1 18.63-5.91 35.79-18.08 47.96-.57-3.33-3.4-20-8.49-49.99-1.22 30.33-1.89 47.18-2.03 50.55-13.65-10.52-22.88-26.57-24.17-45.2-1.47-20.85 7.75-40.22 23.06-52.4 16.79 10.15 28.41 28.04 29.71 49.08z"/><path id="w" d="m167.44 373.43c16.78 16.79 24.53 39.3 23.06 61.25-3.35-2.71-20.08-16.24-50.18-40.59 24.35 30.11 37.88 46.84 40.58 50.18-21.95 1.48-44.46-6.27-61.25-23.06-19-19-26.19-45.2-21.95-69.73 24.54-4.43 50.73 2.95 69.74 21.95z"/><path id="x" d="m472.58 373.43c-16.79 16.79-24.54 39.3-23.06 61.25 3.34-2.71 20.07-16.24 50.18-40.59-24.35 30.11-37.88 46.84-40.59 50.18 21.95 1.48 44.46-6.27 61.25-23.06 19-19 26.38-45.2 21.95-69.73-24.53-4.43-50.73 2.95-69.73 21.95z"/><path id="y" d="m45.86 352.95c14.76-5.16 30.44-3.32 43.17 3.88-2.58 1.21-15.5 7.3-38.74 18.26 25.01-5.87 38.91-9.13 41.69-9.78-5.53 13.47-16.42 24.72-31.36 29.89-16.79 5.9-34.5 2.77-47.97-6.83 4.43-15.86 16.42-29.51 33.21-35.42z"/><path id="z" d="m594.16 352.95c-14.76-5.16-30.44-3.32-43.17 3.88 2.58 1.21 15.49 7.3 38.74 18.26-25.02-5.87-38.92-9.13-41.7-9.78 5.54 13.47 16.42 24.72 31.37 29.89 16.78 5.9 34.5 2.77 47.96-6.83-4.42-15.86-16.42-29.51-33.2-35.42z"/><path id="A" d="m284.95 494.86c0-13.1-4.24-25.83-12.36-36.16-1.07-1.4-6.42-8.41-16.05-21.03 10.52 8.3 16.36 12.91 17.53 13.83 10.88 8.67 26.57 7.75 36.16-2.21l.55-.55 9.6-95.75 9.59 95.75c9.78 9.96 25.27 10.88 36.16 2.21 1.13-.9 6.79-5.39 16.97-13.47-9.52 12.07-14.81 18.77-15.86 20.11-8.12 10.52-12.55 23.25-12.55 36.53v44.65c0 75.64 143.16 76.74 143.16 76.74-11.58 0-69.51 0-173.78 0h-8.12c-104.27 0-162.2 0-173.79 0-.37.56 142.79-.55 142.79-76.19 0-8.89 0-40.02 0-44.46z"/></defs><use fill="#7baa27" xlink:href="#a"/><use fill="none" xlink:href="#a"/><use fill="#7baa27" xlink:href="#b"/><use fill="none" xlink:href="#b"/><use fill="#7baa27" xlink:href="#c"/><use fill="none" xlink:href="#c"/><use fill="#7baa27" xlink:href="#d"/><use fill="none" xlink:href="#d"/><use fill="#7baa27" xlink:href="#e"/><use fill="none" xlink:href="#e"/><use fill="#7baa27" xlink:href="#f"/><use fill="none" xlink:href="#f"/><use fill="#7baa27" xlink:href="#g"/><use fill="none" xlink:href="#g"/><use fill="#7baa27" xlink:href="#h"/><use fill="none" xlink:href="#h"/><use fill="#7baa27" xlink:href="#i"/><use fill="none" xlink:href="#i"/><use fill="#7baa27" xlink:href="#j"/><use fill="none" xlink:href="#j"/><use fill="#7baa27" xlink:href="#k"/><use fill="none" xlink:href="#k"/><use fill="#7baa27" xlink:href="#l"/><use fill="none" xlink:href="#l"/><use fill="#7baa27" xlink:href="#m"/><use fill="none" xlink:href="#m"/><use fill="#7baa27" xlink:href="#n"/><use fill="none" xlink:href="#n"/><use fill="#7baa27" xlink:href="#o"/><use fill="none" xlink:href="#o"/><use fill="#7baa27" xlink:href="#p"/><use fill="none" xlink:href="#p"/><use fill="#7baa27" xlink:href="#q"/><use fill="none" xlink:href="#q"/><use fill="#7baa27" xlink:href="#r"/><use fill="none" xlink:href="#r"/><use fill="#7baa27" xlink:href="#s"/><use fill="none" xlink:href="#s"/><use fill="#7baa27" xlink:href="#t"/><use fill="none" xlink:href="#t"/><use fill="#7baa27" xlink:href="#u"/><use fill="none" xlink:href="#u"/><use fill="#7baa27" xlink:href="#v"/><use fill="none" xlink:href="#v"/><use fill="#7baa27" xlink:href="#w"/><use fill="none" xlink:href="#w"/><use fill="#7baa27" xlink:href="#x"/><use fill="none" xlink:href="#x"/><use fill="#7baa27" xlink:href="#y"/><use fill="none" xlink:href="#y"/><use fill="#7baa27" xlink:href="#z"/><use fill="none" xlink:href="#z"/><use fill="#542b0d" xlink:href="#A"/><use fill="none" xlink:href="#A"/></svg>